<svg width="48" height="49" viewBox="0 0 48 49" fill="none" xmlns="http://www.w3.org/2000/svg">
<path fill-rule="evenodd" clip-rule="evenodd" d="M16.34 34.5347C17.36 34.5347 18.3 33.9546 18.74 33.0544L21.58 27.3732C21.86 26.8131 22 26.213 22 25.5928V16.5309C22 15.4307 21.1 14.5305 20 14.5305H12C10.9 14.5305 10 15.4307 10 16.5309V24.5326C10 25.6328 10.9 26.533 12 26.533H16L13.94 30.6539C13.04 32.4343 14.34 34.5347 16.34 34.5347ZM32.34 34.5347C33.36 34.5347 34.3 33.9546 34.74 33.0544L37.58 27.3732C37.86 26.8131 38 26.213 38 25.5928V16.5309C38 15.4307 37.1 14.5305 36 14.5305H28C26.9 14.5305 26 15.4307 26 16.5309V24.5326C26 25.6328 26.9 26.533 28 26.533H32L29.94 30.6539C29.04 32.4343 30.34 34.5347 32.34 34.5347Z" fill="#969696"/>
</svg>
