<svg width="24" height="25" viewBox="0 0 24 25" fill="none" xmlns="http://www.w3.org/2000/svg">
<path fill-rule="evenodd" clip-rule="evenodd" d="M6 2.56201C3.79086 2.56201 2 4.35287 2 6.56201V18.5663C2 20.7754 3.79086 22.5663 6 22.5663H11.8808V15.7226H9.51601V13.0555H11.8808V11.0887C11.8808 8.80604 13.3119 7.56308 15.403 7.56308C16.4047 7.56308 17.265 7.63598 17.516 7.66838V10.0542L16.066 10.0549C14.929 10.0549 14.709 10.5814 14.709 11.3531V13.0563H17.4207L17.0677 15.7234H14.709V22.5663H18C20.2091 22.5663 22 20.7754 22 18.5663V6.56201C22 4.35287 20.2091 2.56201 17.9999 2.56201H6Z" fill="#969696"/>
</svg>
