<svg width="204" height="24" viewBox="0 0 204 24" fill="none" xmlns="http://www.w3.org/2000/svg">
<path d="M10.304 23.592C9.536 21.5227 8.75733 19.4853 7.968 17.48C7.2 15.4533 6.45333 13.5227 5.728 11.688C5.00267 9.85333 4.32 8.19999 3.68 6.72799C3.232 5.68266 2.88 4.90399 2.624 4.39199C2.368 3.87999 2.12267 3.53866 1.888 3.36799C1.65333 3.19733 1.344 3.09066 0.96 3.04799C0.896 2.79199 0.853333 2.54666 0.832 2.31199C0.810667 2.05599 0.8 1.84266 0.8 1.67199C1.01333 1.69333 1.26933 1.71466 1.568 1.73599C1.86667 1.73599 2.18667 1.74666 2.528 1.76799C2.89067 1.76799 3.25333 1.76799 3.616 1.76799C3.97867 1.76799 4.33067 1.76799 4.672 1.76799C5.35467 1.76799 6.016 1.75733 6.656 1.73599C7.31733 1.71466 7.94667 1.69333 8.544 1.67199C8.544 1.86399 8.52267 2.08799 8.48 2.34399C8.45867 2.57866 8.42667 2.81333 8.384 3.04799C7.68 3.09066 7.15733 3.20799 6.816 3.39999C6.47467 3.57066 6.32533 3.90133 6.368 4.39199C6.432 4.86133 6.67733 5.58666 7.104 6.56799C7.68 7.93333 8.24533 9.31999 8.8 10.728C9.35467 12.136 9.89867 13.5653 10.432 15.016C10.9867 16.4453 11.5413 17.928 12.096 19.464H11.616C12.2347 18.0773 12.8213 16.7013 13.376 15.336C13.952 13.9707 14.5067 12.5947 15.04 11.208C15.5947 9.79999 16.128 8.38133 16.64 6.95199C17.0453 5.75733 17.1627 4.83999 16.992 4.19999C16.8427 3.53866 16.288 3.15466 15.328 3.04799C15.264 2.81333 15.2213 2.56799 15.2 2.31199C15.1787 2.05599 15.168 1.84266 15.168 1.67199C15.488 1.69333 15.7867 1.71466 16.064 1.73599C16.3627 1.73599 16.6613 1.74666 16.96 1.76799C17.2587 1.76799 17.568 1.76799 17.888 1.76799C18.3787 1.76799 18.9227 1.75733 19.52 1.73599C20.1387 1.71466 20.6827 1.69333 21.152 1.67199C21.152 1.90666 21.1413 2.14133 21.12 2.37599C21.0987 2.58933 21.056 2.81333 20.992 3.04799C20.3307 3.19733 19.808 3.60266 19.424 4.26399C19.04 4.90399 18.6453 5.75733 18.24 6.82399C17.1733 9.57599 16.0747 12.3387 14.944 15.112C13.8347 17.8853 12.704 20.6693 11.552 23.464C11.3387 23.5067 11.136 23.5387 10.944 23.56C10.7733 23.5813 10.56 23.592 10.304 23.592ZM21.5278 23.496C21.5278 23.2827 21.5384 23.0587 21.5598 22.824C21.5811 22.568 21.6238 22.3333 21.6878 22.12C22.5411 22.12 23.1171 21.928 23.4158 21.544C23.7358 21.1387 23.8958 20.4027 23.8958 19.336V13C23.8958 12.488 23.8424 12.072 23.7358 11.752C23.6504 11.4107 23.4371 11.1547 23.0958 10.984C22.7544 10.8133 22.2211 10.728 21.4958 10.728C21.4958 10.4933 21.5171 10.28 21.5598 10.088C21.6024 9.89599 21.6771 9.71466 21.7838 9.54399C22.1038 9.54399 22.5518 9.49066 23.1278 9.38399C23.7251 9.27733 24.3011 9.13866 24.8558 8.96799C25.4104 8.79733 25.8158 8.62666 26.0718 8.45599C26.2638 8.51999 26.4238 8.64799 26.5518 8.83999C26.7011 9.03199 26.7758 9.33066 26.7758 9.73599V19.336C26.7758 20.4027 26.9144 21.1387 27.1918 21.544C27.4904 21.928 27.9811 22.12 28.6638 22.12C28.7278 22.3333 28.7704 22.5787 28.7917 22.856C28.8131 23.1333 28.8238 23.3467 28.8238 23.496C28.4611 23.4747 28.0771 23.4533 27.6718 23.432C27.2664 23.432 26.8504 23.4213 26.4238 23.4C26.0184 23.4 25.6131 23.4 25.2078 23.4C24.8024 23.4 24.3758 23.4 23.9278 23.4C23.5011 23.4213 23.0851 23.432 22.6798 23.432C22.2744 23.4533 21.8904 23.4747 21.5278 23.496ZM25.0798 4.83999C24.5464 4.83999 24.0984 4.65866 23.7358 4.29599C23.3731 3.93333 23.1918 3.49599 23.1918 2.98399C23.1918 2.40799 23.3838 1.93866 23.7678 1.57599C24.1518 1.21333 24.5891 1.03199 25.0798 1.03199C25.6558 1.03199 26.1144 1.21333 26.4558 1.57599C26.8184 1.93866 26.9998 2.40799 26.9998 2.98399C26.9998 3.47466 26.8078 3.91199 26.4238 4.29599C26.0611 4.65866 25.6131 4.83999 25.0798 4.83999ZM41.3288 9.57599C41.3074 10.088 41.2861 10.632 41.2648 11.208C41.2648 11.784 41.3074 12.3493 41.3928 12.904C41.1794 13.032 40.9341 13.128 40.6568 13.192C40.3794 13.256 40.0914 13.288 39.7928 13.288C39.7501 12.6907 39.5688 12.1253 39.2488 11.592C38.9501 11.0587 38.5448 10.6213 38.0328 10.28C37.5208 9.93866 36.9128 9.76799 36.2088 9.76799C35.5474 9.76799 35.0141 9.92799 34.6088 10.248C34.2248 10.568 34.0328 10.9947 34.0328 11.528C34.0328 11.8907 34.1074 12.2107 34.2568 12.488C34.4274 12.7653 34.7794 13.064 35.3128 13.384C35.8674 13.6827 36.7101 14.056 37.8408 14.504C38.9928 14.9307 39.8994 15.3573 40.5608 15.784C41.2221 16.2107 41.6914 16.6907 41.9688 17.224C42.2461 17.7573 42.3848 18.408 42.3848 19.176C42.3848 20.072 42.1288 20.8613 41.6168 21.544C41.1048 22.2267 40.4008 22.76 39.5048 23.144C38.6301 23.5067 37.6381 23.688 36.5288 23.688C35.2488 23.688 34.2248 23.592 33.4568 23.4C32.7101 23.1867 31.9741 22.888 31.2488 22.504C31.2914 22.1627 31.3128 21.7467 31.3128 21.256C31.3341 20.7653 31.3448 20.2747 31.3448 19.784C31.3448 19.2933 31.3234 18.8773 31.2808 18.536C31.4514 18.408 31.6861 18.3227 31.9848 18.28C32.3048 18.216 32.6248 18.184 32.9448 18.184C33.1154 19.528 33.5314 20.5307 34.1927 21.192C34.8541 21.8533 35.7394 22.184 36.8488 22.184C37.7234 22.184 38.3954 21.992 38.8648 21.608C39.3554 21.224 39.6008 20.7333 39.6008 20.136C39.6008 19.752 39.5048 19.4213 39.3128 19.144C39.1421 18.8667 38.8114 18.5893 38.3208 18.312C37.8301 18.0347 37.1048 17.704 36.1448 17.32C34.9928 16.8507 34.0648 16.4133 33.3608 16.008C32.6781 15.6027 32.1768 15.1227 31.8568 14.568C31.5581 14.0133 31.4088 13.3093 31.4088 12.456C31.4088 11.7733 31.5794 11.1867 31.9208 10.696C32.2621 10.184 32.6994 9.76799 33.2328 9.44799C33.7874 9.10666 34.3741 8.86133 34.9928 8.71199C35.6114 8.54133 36.1874 8.45599 36.7208 8.45599C37.6808 8.45599 38.5234 8.55199 39.2488 8.74399C39.9741 8.93599 40.6674 9.21333 41.3288 9.57599ZM50.8563 23.528C49.4269 23.528 48.3069 23.112 47.4963 22.28C46.6856 21.448 46.2803 19.9653 46.2803 17.832V13C46.2803 12.2533 46.1736 11.6987 45.9603 11.336C45.7469 10.952 45.1496 10.7493 44.1683 10.728C44.1683 10.4933 44.1789 10.2907 44.2003 10.12C44.2429 9.92799 44.3069 9.73599 44.3923 9.54399C45.0536 9.50133 45.7683 9.37333 46.5363 9.15999C47.3256 8.94666 47.9656 8.71199 48.4563 8.45599C48.6483 8.51999 48.8083 8.65866 48.9363 8.87199C49.0856 9.06399 49.1603 9.39466 49.1603 9.86399V17.128C49.1603 18.5573 49.3523 19.656 49.7363 20.424C50.1416 21.192 50.8349 21.576 51.8163 21.576C52.8829 21.576 53.7683 21.128 54.4723 20.232C55.1976 19.336 55.5603 17.96 55.5603 16.104V12.84C55.5603 12.0933 55.4216 11.5387 55.1443 11.176C54.8883 10.792 54.2269 10.5893 53.1603 10.568C53.1603 10.3333 53.1709 10.1307 53.1923 9.95999C53.2136 9.76799 53.2776 9.57599 53.3843 9.38399C54.2163 9.34133 55.0269 9.23466 55.8163 9.06399C56.6269 8.87199 57.2669 8.66933 57.7363 8.45599C57.9283 8.51999 58.0883 8.65866 58.2163 8.87199C58.3656 9.06399 58.4403 9.39466 58.4403 9.86399V19.144L55.9443 20.328C55.8376 20.6053 55.6883 20.8827 55.4963 21.16C55.3043 21.416 55.0909 21.6613 54.8563 21.896C54.3016 22.4507 53.7149 22.8667 53.0963 23.144C52.4776 23.4 51.7309 23.528 50.8563 23.528ZM56.5843 23.688C56.3709 23.5813 56.1789 23.432 56.0083 23.24C55.8589 23.0267 55.7843 22.5573 55.7843 21.832C55.7843 21.5973 55.7949 21.2667 55.8163 20.84C55.8589 20.4133 55.9549 19.816 56.1043 19.048H58.4403C58.4403 19.5387 58.4829 19.9547 58.5683 20.296C58.6536 20.616 58.8349 20.8507 59.1123 21C59.4109 21.1493 59.8483 21.224 60.4243 21.224C60.4243 21.4373 60.4136 21.6827 60.3923 21.96C60.3709 22.216 60.3176 22.4613 60.2323 22.696C59.6989 22.7173 59.0803 22.824 58.3763 23.016C57.6723 23.1867 57.0749 23.4107 56.5843 23.688ZM72.6948 23.688C72.4601 23.5813 72.2681 23.3893 72.1188 23.112C71.9908 22.8347 71.9268 22.3973 71.9268 21.8C71.9268 21.608 71.9374 21.384 71.9588 21.128C71.9801 20.8507 72.0228 20.6053 72.0868 20.392H72.1508C72.0868 20.7333 71.9374 21.1067 71.7028 21.512C71.4894 21.896 71.2014 22.2373 70.8388 22.536C70.4761 22.856 70.0174 23.1227 69.4628 23.336C68.9081 23.528 68.2361 23.624 67.4468 23.624C66.1028 23.624 65.0788 23.3253 64.3748 22.728C63.6708 22.1093 63.3188 21.2773 63.3188 20.232C63.3188 19.4 63.5108 18.696 63.8948 18.12C64.3001 17.5227 64.8121 17.032 65.4308 16.648C66.0708 16.2427 66.7534 15.9227 67.4788 15.688C68.2254 15.4533 68.9508 15.272 69.6548 15.144C70.3588 15.016 70.9774 14.9093 71.5108 14.824C71.5108 13.9493 71.4894 13.2667 71.4468 12.776C71.4254 12.2853 71.3614 11.9013 71.2548 11.624C71.1694 11.3253 71.0308 11.0693 70.8388 10.856C70.5828 10.536 70.2841 10.3013 69.9427 10.152C69.6228 9.98133 69.2601 9.89599 68.8548 9.89599C68.1508 9.89599 67.5961 10.12 67.1908 10.568C66.7854 10.9947 66.4974 11.496 66.3268 12.072C66.1561 12.648 66.0601 13.16 66.0388 13.608C65.8041 13.608 65.5054 13.5973 65.1428 13.576C64.8014 13.5333 64.5454 13.4693 64.3748 13.384C64.4174 12.8507 64.4281 12.2533 64.4068 11.592C64.3854 10.9307 64.3214 10.3653 64.2148 9.89599C65.0894 9.44799 66.0068 9.09599 66.9668 8.83999C67.9481 8.58399 68.8441 8.45599 69.6548 8.45599C70.4441 8.45599 71.1161 8.57333 71.6708 8.80799C72.2468 9.02133 72.7054 9.30933 73.0468 9.67199C73.6014 10.2053 73.9641 10.9093 74.1348 11.784C74.3054 12.6373 74.3908 13.7787 74.3908 15.208V18.728C74.3908 19.3253 74.4334 19.8053 74.5188 20.168C74.6254 20.5093 74.8174 20.7653 75.0948 20.936C75.3721 21.0853 75.7988 21.1813 76.3748 21.224C76.3748 21.4373 76.3641 21.6827 76.3428 21.96C76.3214 22.216 76.2681 22.4613 76.1828 22.696C75.6494 22.7173 75.0521 22.824 74.3908 23.016C73.7508 23.1867 73.1854 23.4107 72.6948 23.688ZM68.3428 21.864C68.8121 21.864 69.2921 21.7147 69.7828 21.416C70.2734 21.096 70.6788 20.6053 70.9988 19.944C71.3401 19.2827 71.5108 18.4187 71.5108 17.352V16.136C70.9774 16.2 70.4121 16.296 69.8148 16.424C69.2174 16.5307 68.6628 16.7013 68.1508 16.936C67.6388 17.1707 67.2228 17.5013 66.9028 17.928C66.5828 18.3333 66.4227 18.888 66.4227 19.592C66.4227 20.3813 66.6148 20.9573 66.9988 21.32C67.3828 21.6827 67.8308 21.864 68.3428 21.864ZM78.8083 23.496C78.8083 23.2827 78.8189 23.0587 78.8403 22.824C78.8616 22.568 78.9043 22.3333 78.9683 22.12C79.8216 22.12 80.3976 21.928 80.6963 21.544C81.0163 21.1387 81.1763 20.4027 81.1763 19.336V4.99999C81.1763 4.48799 81.1229 4.07199 81.0163 3.75199C80.9309 3.41066 80.7176 3.15466 80.3763 2.98399C80.0349 2.81333 79.5016 2.72799 78.7763 2.72799C78.7763 2.49333 78.7976 2.27999 78.8403 2.08799C78.8829 1.89599 78.9576 1.71466 79.0643 1.54399C79.3843 1.54399 79.8323 1.49066 80.4083 1.38399C81.0056 1.27733 81.5816 1.13866 82.1363 0.967993C82.6909 0.797326 83.0963 0.626659 83.3523 0.455994C83.5443 0.519993 83.7043 0.647992 83.8323 0.839993C83.9816 1.03199 84.0563 1.33066 84.0563 1.73599V19.336C84.0563 20.4027 84.1949 21.1387 84.4723 21.544C84.7709 21.928 85.2616 22.12 85.9443 22.12C86.0083 22.3333 86.0509 22.5787 86.0723 22.856C86.0936 23.1333 86.1042 23.3467 86.1042 23.496C85.7416 23.4747 85.3576 23.4533 84.9523 23.432C84.5469 23.432 84.1309 23.4213 83.7043 23.4C83.2989 23.4 82.8936 23.4 82.4883 23.4C82.0829 23.4 81.6563 23.4 81.2083 23.4C80.7816 23.4213 80.3656 23.432 79.9603 23.432C79.5549 23.4533 79.1709 23.4747 78.8083 23.496ZM95.417 23.496C95.417 23.1973 95.4277 22.9413 95.449 22.728C95.4703 22.4933 95.513 22.2907 95.577 22.12C96.153 22.0773 96.601 21.9813 96.921 21.832C97.241 21.6613 97.465 21.384 97.593 21C97.721 20.5947 97.785 20.04 97.785 19.336V5.83199C97.785 5.10666 97.721 4.55199 97.593 4.16799C97.465 3.78399 97.241 3.50666 96.921 3.33599C96.601 3.16533 96.153 3.06933 95.577 3.04799C95.513 2.87733 95.4703 2.67466 95.449 2.43999C95.4277 2.20533 95.417 1.94933 95.417 1.67199C96.249 1.71466 97.049 1.74666 97.817 1.76799C98.6063 1.76799 99.257 1.76799 99.769 1.76799C100.068 1.76799 100.484 1.76799 101.017 1.76799C101.572 1.74666 102.116 1.73599 102.649 1.73599C103.182 1.71466 103.577 1.70399 103.833 1.70399C105.604 1.70399 107.022 1.99199 108.089 2.56799C109.156 3.14399 109.924 3.90133 110.393 4.83999C110.862 5.77866 111.097 6.80266 111.097 7.91199C111.097 9.12799 110.82 10.3013 110.265 11.432C109.732 12.5627 108.932 13.4907 107.865 14.216C106.798 14.9413 105.454 15.304 103.833 15.304C102.937 15.304 102.19 15.1867 101.593 14.952C101.55 14.7173 101.529 14.4933 101.529 14.28C101.529 14.0667 101.561 13.8533 101.625 13.64C101.902 13.704 102.18 13.7573 102.457 13.8C102.734 13.8213 103.022 13.832 103.321 13.832C104.11 13.832 104.846 13.6933 105.529 13.416C106.212 13.1387 106.766 12.648 107.193 11.944C107.62 11.2187 107.833 10.184 107.833 8.83999C107.833 7.13333 107.406 5.75733 106.553 4.71199C105.721 3.64533 104.345 3.11199 102.425 3.11199C102.19 3.11199 101.913 3.13333 101.593 3.17599C101.294 3.19733 100.868 3.27199 100.313 3.39999L100.793 2.91999V18.696C100.793 19.6133 100.889 20.3173 101.081 20.808C101.273 21.2773 101.582 21.608 102.009 21.8C102.436 21.9707 102.98 22.0773 103.641 22.12C103.705 22.2907 103.748 22.4933 103.769 22.728C103.79 22.9413 103.801 23.1973 103.801 23.496C103.481 23.4747 103.097 23.4533 102.649 23.432C102.222 23.432 101.764 23.4213 101.273 23.4C100.782 23.4 100.281 23.4 99.769 23.4C99.2783 23.4 98.745 23.4 98.169 23.4C97.593 23.4213 97.0597 23.432 96.569 23.432C96.0783 23.4533 95.6943 23.4747 95.417 23.496ZM118.651 18.696C118.651 19.6133 118.747 20.3173 118.939 20.808C119.131 21.2773 119.44 21.608 119.867 21.8C120.293 21.9707 120.837 22.0773 121.499 22.12C121.563 22.2907 121.605 22.4933 121.627 22.728C121.648 22.9413 121.659 23.1973 121.659 23.496C121.339 23.4747 120.955 23.4533 120.507 23.432C120.08 23.432 119.621 23.4213 119.131 23.4C118.64 23.4 118.139 23.4 117.627 23.4C116.88 23.4 116.091 23.4 115.259 23.4C114.448 23.4213 113.829 23.4533 113.403 23.496C113.403 23.1973 113.413 22.9413 113.435 22.728C113.456 22.4933 113.499 22.2907 113.563 22.12C114.139 22.0773 114.587 21.9813 114.907 21.832C115.227 21.6613 115.451 21.384 115.579 21C115.707 20.5947 115.771 20.04 115.771 19.336V16.136H118.651V18.696ZM118.651 14.024V16.552H115.771V13L118.651 9.86399C118.651 10.5893 118.587 11.2507 118.459 11.848C118.331 12.424 118.213 13 118.107 13.576L118.651 14.024ZM117.947 13.768C118.181 13.1707 118.363 12.68 118.491 12.296C118.619 11.912 118.757 11.592 118.907 11.336C119.376 10.5893 119.931 9.97066 120.571 9.47999C121.211 8.98933 121.947 8.74399 122.779 8.74399C123.589 8.74399 124.325 8.99999 124.987 9.51199C124.944 9.85333 124.901 10.248 124.859 10.696C124.816 11.144 124.784 11.592 124.763 12.04C124.763 12.488 124.763 12.904 124.763 13.288C124.571 13.352 124.304 13.416 123.963 13.48C123.643 13.544 123.301 13.576 122.939 13.576C122.896 12.552 122.725 11.88 122.427 11.56C122.149 11.24 121.797 11.08 121.371 11.08C121.008 11.08 120.613 11.2933 120.187 11.72C119.76 12.1253 119.397 12.6693 119.099 13.352C118.8 14.0347 118.651 14.792 118.651 15.624L117.947 13.768ZM115.771 16.552V13C115.771 12.488 115.717 12.072 115.611 11.752C115.504 11.432 115.28 11.1867 114.939 11.016C114.597 10.8453 114.075 10.7493 113.371 10.728C113.371 10.4933 113.392 10.28 113.435 10.088C113.477 9.89599 113.552 9.71466 113.659 9.54399C114.32 9.50133 115.077 9.37333 115.931 9.15999C116.784 8.94666 117.456 8.71199 117.947 8.45599C118.139 8.51999 118.299 8.65866 118.427 8.87199C118.576 9.06399 118.651 9.39466 118.651 9.86399L115.771 16.552ZM134.137 23.688C132.686 23.688 131.417 23.3787 130.329 22.76C129.241 22.12 128.398 21.2347 127.801 20.104C127.204 18.952 126.905 17.608 126.905 16.072C126.905 14.6213 127.214 13.32 127.833 12.168C128.452 11.016 129.305 10.1093 130.393 9.44799C131.481 8.78666 132.729 8.45599 134.137 8.45599C135.652 8.45599 136.942 8.77599 138.009 9.41599C139.097 10.056 139.929 10.952 140.505 12.104C141.081 13.2347 141.369 14.5573 141.369 16.072C141.369 17.5227 141.06 18.824 140.441 19.976C139.844 21.128 139.001 22.0347 137.913 22.696C136.846 23.3573 135.588 23.688 134.137 23.688ZM134.393 22.152C135.673 22.152 136.622 21.6293 137.241 20.584C137.86 19.5173 138.169 18.1413 138.169 16.456C138.169 15.1333 137.966 13.992 137.561 13.032C137.177 12.0507 136.654 11.304 135.993 10.792C135.332 10.2587 134.606 9.99199 133.817 9.99199C132.58 9.99199 131.652 10.4933 131.033 11.496C130.436 12.4987 130.137 13.8 130.137 15.4C130.137 16.8293 130.308 18.056 130.649 19.08C131.012 20.0827 131.513 20.8507 132.153 21.384C132.793 21.896 133.54 22.152 134.393 22.152ZM151.904 8.45599C152.523 8.45599 153.056 8.50933 153.504 8.61599C153.974 8.72266 154.475 8.86133 155.008 9.03199V11.496C154.582 11.048 154.112 10.6747 153.6 10.376C153.11 10.0773 152.491 9.92799 151.744 9.92799C151.296 9.92799 150.806 10.024 150.272 10.216C149.76 10.3867 149.259 10.696 148.768 11.144C148.278 11.592 147.872 12.2213 147.552 13.032C147.254 13.8427 147.104 14.888 147.104 16.168C147.104 17.5333 147.307 18.6213 147.712 19.432C148.118 20.2213 148.598 20.7973 149.152 21.16C149.707 21.5013 150.219 21.672 150.688 21.672C151.328 21.672 151.936 21.48 152.512 21.096C153.11 20.6907 153.6 20.04 153.984 19.144C154.368 18.248 154.56 17.0533 154.56 15.56L155.488 18.952C155.211 19.6347 154.966 20.1573 154.752 20.52C154.56 20.8827 154.411 21.1493 154.304 21.32C154.112 21.64 153.803 21.9813 153.376 22.344C152.971 22.7067 152.47 23.0267 151.872 23.304C151.296 23.56 150.646 23.688 149.92 23.688C148.683 23.688 147.616 23.4427 146.72 22.952C145.824 22.44 145.131 21.6613 144.64 20.616C144.171 19.5707 143.936 18.2267 143.936 16.584C143.936 15.0907 144.267 13.736 144.928 12.52C145.59 11.2827 146.518 10.3013 147.712 9.57599C148.907 8.82933 150.304 8.45599 151.904 8.45599ZM157.44 19.048C157.44 19.5387 157.483 19.9547 157.568 20.296C157.654 20.616 157.835 20.8507 158.112 21C158.411 21.1493 158.848 21.224 159.424 21.224C159.424 21.4373 159.414 21.6827 159.392 21.96C159.371 22.216 159.318 22.4613 159.232 22.696C158.699 22.7173 158.08 22.824 157.376 23.016C156.672 23.1867 156.075 23.4107 155.584 23.688C155.371 23.5813 155.179 23.432 155.008 23.24C154.859 23.0267 154.784 22.5573 154.784 21.832C154.784 21.4053 154.816 21.032 154.88 20.712C154.966 20.3707 155.083 19.816 155.232 19.048H157.44ZM157.44 4.99999V19.336H154.56V4.99999H157.44ZM156.736 0.455994C156.928 0.519993 157.088 0.647992 157.216 0.839993C157.366 1.03199 157.44 1.33066 157.44 1.73599V6.18399H154.56V4.99999C154.56 4.48799 154.507 4.07199 154.4 3.75199C154.315 3.41066 154.102 3.15466 153.76 2.98399C153.419 2.81333 152.886 2.72799 152.16 2.72799C152.16 2.49333 152.182 2.27999 152.224 2.08799C152.267 1.89599 152.342 1.71466 152.448 1.54399C152.768 1.54399 153.216 1.49066 153.792 1.38399C154.368 1.27733 154.934 1.13866 155.488 0.967993C156.064 0.797326 156.48 0.626659 156.736 0.455994ZM167.919 23.528C166.489 23.528 165.369 23.112 164.559 22.28C163.748 21.448 163.343 19.9653 163.343 17.832V13C163.343 12.2533 163.236 11.6987 163.023 11.336C162.809 10.952 162.212 10.7493 161.231 10.728C161.231 10.4933 161.241 10.2907 161.263 10.12C161.305 9.92799 161.369 9.73599 161.455 9.54399C162.116 9.50133 162.831 9.37333 163.599 9.15999C164.388 8.94666 165.028 8.71199 165.519 8.45599C165.711 8.51999 165.871 8.65866 165.999 8.87199C166.148 9.06399 166.223 9.39466 166.223 9.86399V17.128C166.223 18.5573 166.415 19.656 166.799 20.424C167.204 21.192 167.897 21.576 168.879 21.576C169.945 21.576 170.831 21.128 171.535 20.232C172.26 19.336 172.623 17.96 172.623 16.104V12.84C172.623 12.0933 172.484 11.5387 172.207 11.176C171.951 10.792 171.289 10.5893 170.223 10.568C170.223 10.3333 170.233 10.1307 170.255 9.95999C170.276 9.76799 170.34 9.57599 170.447 9.38399C171.279 9.34133 172.089 9.23466 172.879 9.06399C173.689 8.87199 174.329 8.66933 174.799 8.45599C174.991 8.51999 175.151 8.65866 175.279 8.87199C175.428 9.06399 175.503 9.39466 175.503 9.86399V19.144L173.007 20.328C172.9 20.6053 172.751 20.8827 172.559 21.16C172.367 21.416 172.153 21.6613 171.919 21.896C171.364 22.4507 170.777 22.8667 170.159 23.144C169.54 23.4 168.793 23.528 167.919 23.528ZM173.647 23.688C173.433 23.5813 173.241 23.432 173.071 23.24C172.921 23.0267 172.847 22.5573 172.847 21.832C172.847 21.5973 172.857 21.2667 172.879 20.84C172.921 20.4133 173.017 19.816 173.167 19.048H175.503C175.503 19.5387 175.545 19.9547 175.631 20.296C175.716 20.616 175.897 20.8507 176.175 21C176.473 21.1493 176.911 21.224 177.487 21.224C177.487 21.4373 177.476 21.6827 177.455 21.96C177.433 22.216 177.38 22.4613 177.295 22.696C176.761 22.7173 176.143 22.824 175.439 23.016C174.735 23.1867 174.137 23.4107 173.647 23.688ZM191.965 20.904C191.389 21.8213 190.675 22.5147 189.821 22.984C188.968 23.4533 187.933 23.688 186.717 23.688C185.629 23.688 184.573 23.4107 183.549 22.856C182.547 22.28 181.715 21.4373 181.053 20.328C180.392 19.1973 180.061 17.8 180.061 16.136C180.061 14.856 180.317 13.6293 180.829 12.456C181.341 11.2827 182.088 10.3227 183.069 9.57599C184.072 8.82933 185.288 8.45599 186.717 8.45599C187.699 8.45599 188.595 8.57333 189.405 8.80799C190.237 9.04266 190.952 9.40533 191.549 9.89599C191.464 10.5147 191.4 11.1227 191.357 11.72C191.336 12.3173 191.325 12.9253 191.325 13.544C191.155 13.6293 190.92 13.6933 190.621 13.736C190.344 13.7787 190.088 13.8 189.853 13.8C189.725 12.5627 189.363 11.6133 188.765 10.952C188.168 10.2907 187.4 9.95999 186.461 9.95999C185.416 9.95999 184.584 10.4507 183.965 11.432C183.347 12.4133 183.037 13.8213 183.037 15.656C183.037 16.7227 183.208 17.736 183.549 18.696C183.912 19.6347 184.435 20.4027 185.117 21C185.8 21.576 186.632 21.864 187.613 21.864C188.296 21.864 188.936 21.704 189.533 21.384C190.152 21.064 190.696 20.6053 191.165 20.008C191.336 20.0933 191.496 20.2213 191.645 20.392C191.795 20.5413 191.901 20.712 191.965 20.904ZM199.75 23.688C198.491 23.688 197.552 23.368 196.934 22.728C196.336 22.0667 196.038 21.0107 196.038 19.56V10.888C195.718 10.7813 195.387 10.696 195.046 10.632C194.704 10.5467 194.267 10.4933 193.734 10.472C193.734 10.1947 193.755 9.95999 193.798 9.76799C193.84 9.55466 193.915 9.31999 194.022 9.06399H196.038V4.83999C196.464 4.73333 196.88 4.56266 197.286 4.32799C197.712 4.09333 198.086 3.83733 198.406 3.55999C198.619 3.64533 198.758 3.77333 198.822 3.94399C198.886 4.11466 198.918 4.54133 198.918 5.22399V9.06399H203.078C203.078 9.27733 203.056 9.51199 203.014 9.76799C202.971 10.0027 202.896 10.2373 202.79 10.472C202.022 10.4933 201.318 10.5467 200.678 10.632C200.038 10.696 199.451 10.7813 198.918 10.888V18.888C198.918 19.592 198.992 20.1787 199.142 20.648C199.291 21.096 199.504 21.4267 199.782 21.64C200.059 21.8533 200.39 21.96 200.774 21.96C201.222 21.96 201.606 21.896 201.926 21.768C202.267 21.64 202.587 21.448 202.886 21.192C203.163 21.512 203.323 21.864 203.366 22.248C203.024 22.6533 202.502 22.9947 201.798 23.272C201.115 23.5493 200.432 23.688 199.75 23.688Z" fill="#333333"/>
</svg>
