<svg width="18" height="18" viewBox="0 0 18 18" fill="none" xmlns="http://www.w3.org/2000/svg">
<path fill-rule="evenodd" clip-rule="evenodd" d="M12 1.50903C14.4853 1.50903 16.5 3.52375 16.5 6.00903V12.009C16.5 14.4943 14.4853 16.509 12 16.509H6C3.51472 16.509 1.5 14.4943 1.5 12.009V6.00903C1.5 3.52375 3.51472 1.50903 6 1.50903L12 1.50903ZM11.25 3.75903H6.75C5.14335 3.75903 3.83169 5.02201 3.75367 6.6093L3.75 6.75903V11.259C3.75 12.8657 5.01298 14.1773 6.60027 14.2554L6.75 14.259H11.25C12.8566 14.259 14.1683 12.9961 14.2463 11.4088L14.25 11.259V6.75903C14.25 5.15239 12.987 3.84072 11.3997 3.7627L11.25 3.75903Z" fill="white"/>
</svg>
