<svg width="48" height="48" viewBox="0 0 48 48" fill="none" xmlns="http://www.w3.org/2000/svg">
<path fill-rule="evenodd" clip-rule="evenodd" d="M24 48C37.2548 48 48 37.2548 48 24C48 10.7452 37.2548 0 24 0C10.7452 0 0 10.7452 0 24C0 37.2548 10.7452 48 24 48Z" fill="#24AFB5"/>
<path opacity="0.4" fill-rule="evenodd" clip-rule="evenodd" d="M16.5519 23.1724H31.4485C34.1909 23.1724 36.414 25.3955 36.414 28.1379V33.1034C36.414 35.8458 34.1909 38.0689 31.4485 38.0689H16.5519C13.8096 38.0689 11.5864 35.8458 11.5864 33.1034V28.1379C11.5864 25.3955 13.8096 23.1724 16.5519 23.1724Z" fill="white"/>
<path opacity="0.6" fill-rule="evenodd" clip-rule="evenodd" d="M16.5519 16.5518H31.4485C34.1909 16.5518 36.414 18.7749 36.414 21.5173V26.4828C36.414 29.2252 34.1909 31.4483 31.4485 31.4483H16.5519C13.8096 31.4483 11.5864 29.2252 11.5864 26.4828V21.5173C11.5864 18.7749 13.8096 16.5518 16.5519 16.5518Z" fill="white"/>
<path opacity="0.8" fill-rule="evenodd" clip-rule="evenodd" d="M16.5519 9.93103H31.4485C34.1909 9.93103 36.414 12.1542 36.414 14.8965V19.8621C36.414 22.6044 34.1909 24.8276 31.4485 24.8276H16.5519C13.8096 24.8276 11.5864 22.6044 11.5864 19.8621V14.8965C11.5864 12.1542 13.8096 9.93103 16.5519 9.93103Z" fill="white"/>
</svg>
