<svg width="80" height="81" viewBox="0 0 80 81" fill="none" xmlns="http://www.w3.org/2000/svg">
<path fill-rule="evenodd" clip-rule="evenodd" d="M40 80.5442C62.0914 80.5442 80 62.6319 80 40.5359C80 18.4399 62.0914 0.527588 40 0.527588C17.9086 0.527588 0 18.4399 0 40.5359C0 62.6319 17.9086 80.5442 40 80.5442Z" fill="#DBDBDB"/>
<path fill-rule="evenodd" clip-rule="evenodd" d="M40 21.8654C44.4267 21.8654 48 25.4394 48 29.867C48 34.2946 44.4267 37.8687 40 37.8687C35.5733 37.8687 32 34.2946 32 29.867C32 25.4394 35.5733 21.8654 40 21.8654V21.8654ZM40 59.7399C33.3333 59.7399 27.44 56.3258 24 51.1514C24.08 45.8437 34.6667 42.9364 40 42.9364C45.3067 42.9364 55.92 45.8437 56 51.1514C52.56 56.3258 46.6667 59.7399 40 59.7399V59.7399Z" fill="#969696"/>
</svg>
